#!OML:ASF X:\für Bonn\!DataBase\2005_08_12_Daniel\c3d\Daniel.ASF
:FULLY-SPECIFIED
:DEGREES
108
root -1.61168 16.4676 10.7312 -534.381 31.0182 -523.748
lowerback 15.3637 -4.44452 4.16375
upperback 2.91727 -4.89222 0.691478
thorax -5.77436 -2.34805 -0.632789
lowerneck -1.98544 13.9727 0.302421
upperneck -8.58015 18.502 -14.3394
head -0.921575 9.70015 -4.56257
rclavicle -1.11319e-014 6.36111e-015
rhumerus -66.1298 7.86336 -94.1688
rradius 74.862
rwrist -1.00987
rhand -29.4238 33.2226
rfingers 7.12502
rthumb -2.76103 3.26071
lclavicle -1.11319e-014 6.36111e-015
lhumerus -47.2168 5.26901 96.3408
lradius 121.886
lwrist 17.2644
lhand -11.1956 -15.3457
lfingers 7.12502
lthumb 14.8321 14.1035
rfemur -27.5599 -0.0694671 22.6393
rtibia 84.8525
rfoot -5.79537 -5.56421
rtoes -9.53925
lfemur -1.0891 1.49994 -26.1571
ltibia 49.1374
lfoot -31.1604 2.81025
ltoes 8.60288
109
root -1.47167 16.5941 10.4578 -533.963 30.1062 -523.393
lowerback 14.7657 -4.73971 4.79925
upperback 2.83998 -5.21163 0.873399
thorax -5.58507 -2.51718 -0.7657
lowerneck -2.09329 14.1531 0.0471527
upperneck -8.34193 18.774 -14.2476
head -0.838686 9.82463 -4.45751
rclavicle -1.31198e-014 1.59028e-015
rhumerus -66.8088 8.2353 -93.8082
rradius 74.2997
rwrist -0.6986
rhand -29.5687 33.8611
rfingers 7.12502
rthumb -2.90097 3.90104
lclavicle -1.31198e-014 1.59028e-015
lhumerus -47.5685 4.60584 96.0258
lradius 122.353
lwrist 17.1043
lhand -10.5534 -15.6742
lfingers 7.12502
lthumb 15.4507 13.7283
rfemur -28.1808 1.059 23.3737
rtibia 82.0507
rfoot -5.79706 -5.40688
rtoes -8.9095
lfemur 0.276878 1.00056 -25.5651
ltibia 47.6519
lfoot -28.9115 2.49336
ltoes 8.40649
110
root -1.33237 16.7237 10.1816 -533.566 29.2218 -523.115
lowerback 14.1424 -5.00348 5.33524
upperback 2.75023 -5.5137 1.07223
thorax -5.387 -2.67558 -0.834305
lowerneck -2.20217 14.3168 -0.293432
upperneck -8.07793 19.0288 -14.127
head -0.761394 9.94117 -4.3308
rclavicle 5.10877e-014 -4.77083e-014
rhumerus -67.4601 8.6414 -93.4493
rradius 73.7109
rwrist -0.550044
rhand -29.6763 34.3973
rfingers 7.12502
rthumb -3.00481 4.43875
lclavicle 5.10877e-014 -4.77083e-014
lhumerus -48.0381 3.89663 95.7263
lradius 122.837
lwrist 16.8073
lhand -10.1315 -16.0073
lfingers 7.12502
lthumb 15.857 13.3634
rfemur -28.7029 2.10591 23.9282
rtibia 79.0499
rfoot -5.74135 -5.04277
rtoes -8.43717
lfemur 1.51853 0.54967 -24.9975
ltibia 46.2029
lfoot -26.379 2.10967
ltoes 8.48798
111
root -1.1939 16.8581 9.90023 -533.206 28.3386 -522.97
lowerback 13.4749 -5.23964 5.76326
upperback 2.66338 -5.80987 1.23133
thorax -5.15717 -2.82945 -0.894025
lowerneck -2.37345 14.4485 -0.45674
upperneck -7.76233 19.2474 -14.0687
head -0.635736 10.0318 -4.24233
rclavicle 7.35503e-015 5.08889e-014
rhumerus -68.0793 9.02143 -93.1719
rradius 73.1657
rwrist -0.574332
rhand -29.8168 34.6976
rfingers 7.12502
rthumb -3.14056 4.74094
lclavicle 7.35503e-015 5.08889e-014
lhumerus -48.5023 3.0174 95.3646
lradius 123.319
lwrist 16.4716
lhand -9.86355 -16.094
lfingers 7.12502
lthumb 16.115 13.256
rfemur -29.1386 3.04913 24.274
rtibia 75.8545
rfoot -5.6393 -4.60493
rtoes -8.11591
lfemur 2.61829 0.14208 -24.5047
ltibia 44.8145
lfoot -23.4986 1.69157
ltoes 8.57116
112
root -1.05583 16.9953 9.61492 -532.896 27.5043 -522.914
lowerback 12.8536 -5.43994 6.08018
upperback 2.54351 -6.078 1.37704
thorax -4.97749 -2.96967 -0.910538
lowerneck -2.49905 14.5784 -0.507823
upperneck -7.41668 19.4652 -14.0687
head -0.490911 10.1199 -4.19114
rclavicle -3.18055e-014 5.40694e-014
rhumerus -68.6145 9.34909 -92.9412
rradius 72.5398
rwrist -0.755792
rhand -29.7851 34.8401
rfingers 7.12502
rthumb -3.10995 4.883
lclavicle -3.18055e-014 5.40694e-014
lhumerus -49.0297 2.06432 94.9782
lradius 123.727
lwrist 16.035
lhand -9.77458 -16.0618
lfingers 7.12502
lthumb 16.2007 13.2812
rfemur -29.4718 3.99574 24.5111
rtibia 72.4524
rfoot -5.48975 -4.29416
rtoes -7.9761
lfemur 3.60677 -0.18009 -24.0509
ltibia 43.5318
lfoot -20.3467 1.24687
ltoes 8.31824
